{"title":"Lexi.Diamond.So.Young.So.Sexy.POV.2014.xXx.NEW-SATA","uid":10636224,"size":325400821,"categoryP":"porn","categoryS":"movie_clips","magnet":"?xt=urn:btih:216b7c012eb2ea61399f3e07fc4e3967351b68aa&amp;dn=Lexi.Diamond.So.Young.So.Sexy.POV.2014.xXx.NEW-SATA&amp;tr=udp%3A%2F%2Ftracker.openbittorrent.com%3A80&amp;tr=udp%3A%2F%2Fopen.demonii.com%3A1337&amp;tr=udp%3A%2F%2Ftracker.coppersurfer.tk%3A6969&amp;tr=udp%3A%2F%2Fexodus.desync.com%3A6969","seeders":1,"leechers":2,"uploader":null,"files":-1,"time":1406392586,"description":"Lexi Diamond is a Porn Star from United States. She was born in Pomona on December 28, 1990. She is listed on FreeOnes since 2009 and is currently ranked 532th place. She currently has 279 gallery links and 17 videos in her own FreeOnes section. \n\n\nGeneral\nComplete name                    : Lexi.Diamond.So.Young.So.Sexy.POV.2014.xXx.NEW-SATA.mp4\nFormat                           : MPEG-4\nFormat profile                   : Base Media\nCodec ID                         : isom\nFile size                        : 310 MiB\nDuration                         : 31mn 45s\nOverall bit rate                 : 1 366 Kbps\nEncoded date                     : UTC 2014-07-26 01:04:54\nTagged date                      : UTC 2014-07-26 01:04:54\n\n\nVideo\nID                               : 1\nFormat                           : MPEG-4 Visual\nFormat profile                   : Simple@L1\nFormat settings, BVOP            : No\nFormat settings, QPel            : No\nFormat settings, GMC             : No warppoints\nFormat settings, Matrix          : Default (H.263)\nCodec ID                         : 20\nDuration                         : 31mn 45s\nBit rate mode                    : Variable\nBit rate                         : 1 228 Kbps\nMaximum bit rate                 : 1 935 Kbps\nWidth                            : 568 pixels\nHeight                           : 320 pixels\nDisplay aspect ratio             : 16:9\nFrame rate mode                  : Constant\nFrame rate                       : 29.970 fps\nColor space                      : YUV\nChroma subsampling               : 4:2:0\nBit depth                        : 8 bits\nScan type                        : Progressive\nCompression mode                 : Lossy\nBits/(Pixel*Frame)               : 0.225\nStream size                      : 279 MiB (90%)\nWriting library                  : Lavc53.8.0\nEncoded date                     : UTC 2014-07-26 01:04:54\nTagged date                      : UTC 2014-07-26 01:05:13\n\nAudio\nID                               : 2\nFormat                           : AAC\nFormat/Info                      : Advanced Audio Codec\nFormat profile                   : LC\nCodec ID                         : 40\nDuration                         : 31mn 45s\nBit rate mode                    : Variable\nBit rate                         : 135 Kbps\nMaximum bit rate                 : 165 Kbps\nChannel(s)                       : 6 channels\nChannel positions                : Front: L C R, Side: L R, LFE\nSampling rate                    : 44.1 KHz\nCompression mode                 : Lossy\nStream size                      : 30.8 MiB (10%)\nEncoded date                     : UTC 2014-07-26 01:05:05\nTagged date                      : UTC 2014-07-26 01:05:13","torrent":{"xt":"urn:btih:216b7c012eb2ea61399f3e07fc4e3967351b68aa","amp;dn":"Lexi.Diamond.So.Young.So.Sexy.POV.2014.xXx.NEW-SATA","amp;tr":["udp%3A%2F%2Ftracker.openbittorrent.com%3A80","udp%3A%2F%2Fopen.demonii.com%3A1337","udp%3A%2F%2Ftracker.coppersurfer.tk%3A6969","udp%3A%2F%2Fexodus.desync.com%3A6969"],"infoHash":"216b7c012eb2ea61399f3e07fc4e3967351b68aa","infoHashBuffer":{"type":"Buffer","data":[33,107,124,1,46,178,234,97,57,159,62,7,252,78,57,103,53,27,104,170]},"announce":[],"urlList":[]}}